<?xml version="1.0" encoding="utf-8"?>
<!-- Generator: Adobe Illustrator 24.3.0, SVG Export Plug-In . SVG Version: 6.00 Build 0)  -->
<svg version="1.1" id="Layer_1" xmlns="http://www.w3.org/2000/svg" xmlns:xlink="http://www.w3.org/1999/xlink" x="0px" y="0px"
	 viewBox="0 0 80 80" enable-background="new 0 0 80 80" xml:space="preserve">
<path fill="#18CEF6" d="M67.334,52.537c0,1.943-1.538,5.051-3.434,5.051l-43.734,0.767c-1.896,0-3.434-0.809-3.434-2.752V25.708
	c0-1.943,0.789-2.752,2.686-2.752h46.725c1.896,0,1.19,1.576,1.19,3.518V52.537z"/>
<path fill="#233251" d="M62.473,17H16.609C13.511,17,11,19.573,11,22.746v30.908c0,3.173,2.511,5.746,5.609,5.746h45.863
	c3.099,0,5.608-2.573,5.608-5.746V22.746C68.08,19.573,65.571,17,62.473,17z M16.609,19.299h45.863
	c1.859,0.003,3.361,1.544,3.364,3.447v5.022H13.243v-5.022C13.246,20.843,14.748,19.302,16.609,19.299z M62.473,57.101H16.609
	c-1.861-0.003-3.363-1.544-3.366-3.447V30.066h52.594v23.588C65.834,55.557,64.332,57.099,62.473,57.101z"/>
<g>
	<path fill="#FFFFFF" d="M46.147,52.159c-0.897,0-1.621-0.741-1.622-1.659l0,0c0.001-0.921,0.725-1.659,1.622-1.66l0,0h9.721
		c0.895,0.002,1.618,0.74,1.62,1.66l0,0c-0.001,0.917-0.725,1.659-1.62,1.659l0,0H46.147L46.147,52.159z"/>
</g>
</svg>
