<?xml version="1.0" encoding="UTF-8"?>
<!DOCTYPE svg PUBLIC "-//W3C//DTD SVG 1.1//EN" "http://www.w3.org/Graphics/SVG/1.1/DTD/svg11.dtd">
<!-- Creator: CorelDRAW -->
<svg xmlns="http://www.w3.org/2000/svg" xml:space="preserve" width="2048px" height="2048px" style="shape-rendering:geometricPrecision; text-rendering:geometricPrecision; image-rendering:optimizeQuality; fill-rule:evenodd; clip-rule:evenodd"
viewBox="0 0 2048 2048"
 xmlns:xlink="http://www.w3.org/1999/xlink">
 <defs>
  <style type="text/css">
   <![CDATA[
    .fil0 {fill:none}
    .fil2 {fill:#212121}
    .fil1 {fill:#212121;fill-rule:nonzero}
    .fil3 {fill:#231F20;fill-rule:nonzero}
   ]]>
  </style>
 </defs>
 <g id="Layer_x0020_1">
  <metadata id="CorelCorpID_0Corel-Layer"/>
  <rect class="fil0" width="2048" height="2048"/>
  <rect class="fil0" x="255.999" y="255.999" width="1536" height="1536"/>
  <path class="fil1" d="M512.001 1097.09c56.5914,8.39646 101.268,38.0197 145.682,67.4788 28.0807,18.6248 56.0493,37.1764 85.1705,47.9244 84.6544,31.2603 191.873,20.354 292.094,10.1599 101.502,-10.3205 184.116,-8.45316 283.634,-7.65945l0 -0.122835c19.4811,0 34.4233,-6.63662 42.9945,-16.891 4.57323,-5.47205 7.39961,-12.0425 8.11064,-19.1256 0.788977,-7.86024 -0.872835,-16.6689 -5.40119,-25.8284 -33.9437,-68.6552 -149.522,-79.7481 -217.07,-84.3568 -71.3339,-4.86615 -137.069,-3.77481 -183.595,-62.165 -13.2036,-16.5697 -22.1977,-35.2252 -24.7075,-55.0052 -8.07166,-63.6083 85.089,-247.499 201.344,-211.521 14.7921,13.3925 100.752,74.015 119.623,57.7855 37.4292,-32.1591 84.1194,-55.1859 131.464,-68.4001 -369.221,-294.503 -487.7,27.9201 -879.342,36.9591l0 -44.2902c0,-6.67678 -0.578741,-13.2579 -1.69134,-19.6854 449.691,-30.3461 488.655,-335.007 930.708,-15.1949 39.5835,29.661 67.1516,49.5851 52.1894,79.0571l-29.674 8.98938c-15.7843,4.78111 -32.1673,9.30355 -45.73,13.0453 -32.7225,9.03072 -44.8985,12.3921 -86.7237,36.6862 -15.0437,8.74016 -23.6173,16.1067 -29.7012,21.3343 -26.4591,22.7362 -67.9134,21.9343 -114.636,1.29921 -27.8351,-12.2941 -44.6906,-25.8792 -60.2835,-38.4461 -6.96969,-5.61733 -13.6358,-10.9902 -20.2028,-15.1394 -27.0484,-17.0882 -145.22,135.605 -73.5993,191.351 29.7355,13.5095 73.5225,16.5012 118.807,19.5898 94.6961,6.46063 222.96,24.5705 270.071,119.858 10.0323,20.2902 13.5992,40.937 11.6516,60.3284 -2.02559,20.1697 -9.90119,38.667 -22.6122,53.876 -20.2441,24.2209 -52.4244,39.8918 -91.9938,39.8918l-0.250394 -0.125197c-97.4552,-0.777166 -178.1,-2.66575 -277.133,7.4067 -107.333,10.9181 -222.156,22.5969 -320.344,-13.6606 -36.0591,-13.3087 -67.1764,-33.9496 -98.4225,-54.6733 -35.2264,-23.3634 -70.643,-46.8508 -110.431,-55.552l0 -65.178z"/>
  <path class="fil2" d="M1566.46 1118.19c-26.3965,-12.8173 -52.415,-19.2225 -52.415,-40.2414 0,-18.8445 11.0055,-24.4795 28.5709,-24.4795 12.4394,0 23.1933,4.60748 33.1925,12.4394 7.57323,6.40512 16.278,10.6276 26.7874,10.6276 19.5921,0 33.8292,-18.4595 33.8292,-36.0024 0,-13.2024 -6.80434,-24.4878 -19.2366,-33.2008 -10.6276,-8.07638 -22.4173,-14.2217 -34.5827,-18.4595l0 -16.7811c0,-16.2791 -13.2024,-29.4662 -29.4803,-29.4662l-21.411 0c-16.2638,0 -29.465,13.187 -29.465,29.4662l0 18.4453c-37.4162,15.7748 -60.2327,52.6807 -60.2327,88.9501 0,57.665 51.2611,82.1386 94.3205,102.129 34.2201,15.7536 45.6248,25.6347 45.6248,40.2343 0,24.4795 -20.3835,36.6532 -44.087,36.6532 -13.5862,0 -26.0044,-1.54488 -41.0032,-12.4252 -7.56615,-6.41221 -16.4114,-11.6776 -27.0544,-11.6776 -19.591,0 -33.8209,18.4677 -33.8209,36.0177 0,12.8244 6.40512,23.2004 18.1937,32.2985 13.0831,9.98387 32.8087,18.5776 48.0591,22.6748l0 12.8173c0,16.2709 13.2012,29.4803 29.465,29.4803l21.411 0c16.278,0 29.4803,-13.2095 29.4803,-29.4803l0 -15.2351c43.0512,-14.4886 72.5233,-50.6327 72.5233,-103.298 -0.125197,-52.8 -36.7725,-76.2449 -88.669,-101.486z"/>
  <path class="fil3" d="M303.626 639.937l97.3335 0c22.0996,0 42.0815,9.51379 56.4733,24.8386 13.9252,14.8299 22.5685,35.1083 22.5685,57.2552l0 444.033c0,22.1469 -8.64568,42.424 -22.5697,57.2528 -14.3929,15.326 -34.3772,24.8398 -56.4721,24.8398l-97.3335 0c-22.0961,0 -42.0815,-9.51379 -56.4745,-24.8398 -13.9228,-14.8264 -22.5673,-35.1036 -22.5673,-57.2528l0 -444.033c0,-22.1504 8.64213,-42.4288 22.5673,-57.2563 14.3917,-15.3248 34.3748,-24.8374 56.4745,-24.8374zm97.3335 64.0016l-97.3335 0c-3.77717,0 -7.31693,1.7563 -9.97442,4.58622 -3.1252,3.32835 -5.06575,8.09883 -5.06575,13.5059l0 444.033c0,5.40473 1.94055,10.174 5.06575,13.5024 2.65748,2.82992 6.19843,4.58859 9.97442,4.58859l97.3335 0c3.77481,0 7.31457,-1.75866 9.97205,-4.58859 3.12638,-3.32953 5.06811,-8.09883 5.06811,-13.5024l0 -444.033c0,-5.40473 -1.94055,-10.1752 -5.06693,-13.5047 -2.65748,-2.82992 -6.19607,-4.58741 -9.97324,-4.58741z"/>
  <path class="fil1" d="M1253.66 964.736c12.5256,-19.1681 27.1347,-37.0323 43.5461,-53.315 16.3772,-16.2484 34.3866,-30.7276 53.7496,-43.1622 76.193,-48.9343 164.962,-62.3646 246.882,-44.5193 81.9863,17.8618 157.171,67.0123 206.112,143.216 48.9343,76.1953 62.3634,164.964 44.5181,246.882 -17.8618,81.9886 -67.0134,157.172 -143.216,206.112 -76.193,48.9343 -164.962,62.3634 -246.881,44.5181 -81.9875,-17.8606 -157.172,-67.0123 -206.113,-143.216l53.7496 -34.5c39.3674,61.2981 99.8717,100.841 165.864,115.217 66.0591,14.3906 137.575,3.60473 198.881,-35.7685 61.2969,-39.3674 100.84,-99.8705 115.217,-165.862 14.3906,-66.0591 3.60473,-137.575 -35.7685,-198.882 -39.3674,-61.2981 -99.8717,-100.84 -165.862,-115.217 -66.0603,-14.3906 -137.576,-3.60355 -198.882,35.7697 -15.7087,10.0878 -30.1996,21.7158 -43.2496,34.663 -13.0158,12.913 -24.7725,27.3425 -35.0469,43.0654l-53.4993 -35.0008z"/>
 </g>
</svg>
